<svg width="560" height="560" xmlns="http://www.w3.org/2000/svg">

 <g>
  <title>background</title>
  <rect fill="none" id="canvas_background" height="562" width="562" y="-1" x="-1"/>
 </g>
 <g>
  <title>Layer 1</title>
  <path id="svg_1" fill="#c82606" d="m131.9,283.6c0,-80.2 11.6,-159.7 22.6,-178.1l-95.5,0c-18.4,55.1 -26.3,127.3 -26.3,167.7c0,67.3 11,138.3 26.9,181.2l94.2,0c-8.4,-36.8 -21.9,-99.8 -21.9,-170.8z"/>
  <polygon id="svg_2" fill="#c82606" points="94.60000610351562,552.2999877929688 272,552.2999877929688 280,552.2999877929688 465.4000244140625,552.2999877929688 489.29998779296875,485 70.69999694824219,485 "/>
  <g id="svg_3">
   <polygon id="svg_4" fill="#c82606" points="489.9000244140625,74.9000015258789 464.9000244140625,7.600000381469727 280,7.600000381469727 272,7.600000381469727 95.10000610351562,7.600000381469727 70.10000610351562,74.9000015258789 "/>
  </g>
  <path id="svg_5" fill="#c82606" d="m428.1,283.6c0,71 -13.5,134 -22.6,170.7l94.2,0c15.9,-42.8 26.9,-113.8 26.9,-181.2c0,-40.4 -8,-112.6 -26.3,-167.7l-94.9,0c11.1,18.5 22.7,98 22.7,178.2z"/>
  <path id="svg_6" fill="#c82606" d="m381,105.5l-88.7,0l0,348.8l89.4,0c8,-18.4 23.3,-98.5 23.3,-170.7c-0.2,-85.7 -14.2,-159.7 -24,-178.1z"/>
  <path id="svg_7" fill="#c82606" d="m155.2,283.6c0,72.8 14.7,152.4 23.3,170.7l89.4,0l0,-348.8l-88.9,0c-9.8,18.4 -23.8,92.4 -23.8,178.1z"/>
 </g>
</svg>
